<svg fill="none" height="15" viewBox="0 0 15 15" width="15" xmlns="http://www.w3.org/2000/svg"><g fill="#000"><path d="m0 7.49996c0-3.97413 3.09098-7.22631 7-7.4836026v4.0190426c-1.69615.24261-3 1.70132-3 3.46456 0 1.93299 1.567 3.50004 3.5 3.50004.78618 0 1.51181-.2593 2.0961-.6969l2.8419 2.842c-1.3192 1.1549-3.04687 1.8549-4.938 1.8549-4.14214 0-7.5-3.3579-7.5-7.50004z"/><path d="m13.1451 12.438c1.155-1.3193 1.8549-3.04693 1.8549-4.93804 0-1.03352-.2091-2.01821-.5872-2.9141l-3.6576 1.62561c.158.39877.2448.83349.2448 1.28849 0 .78615-.2592 1.51178-.6968 2.09606z"/><path d="m8 4.0354v-4.0190426c2.5416.1672876 4.7373 1.6006326 5.9626 3.6753026l-3.7085 1.6482c-.54347-.69195-1.34207-1.17401-2.2541-1.30446z"/></g></svg>